<?xml version="1.0" standalone="no"?>
<!DOCTYPE svg PUBLIC "-//W3C//DTD SVG 20010904//EN"
 "http://www.w3.org/TR/2001/REC-SVG-20010904/DTD/svg10.dtd">
<svg version="1.0" xmlns="http://www.w3.org/2000/svg"
 width="520.000000pt" height="268.000000pt" viewBox="0 0 520.000000 268.000000"
 preserveAspectRatio="xMidYMid meet">

<g transform="translate(0.000000,268.000000) scale(0.100000,-0.100000)"
fill="#000000" stroke="none">
<path d="M0 1435 l0 -1215 125 0 124 0 4 -107 3 -108 2 108 2 107 2345 0 2345
0 0 1105 0 1105 120 0 120 0 3 -1212 2 -1213 3 1218 2 1217 -125 0 -125 0 0
105 0 105 -2475 0 -2475 0 0 -1215z m1405 364 c53 -16 78 -31 121 -73 l54 -52
0 68 0 68 150 0 150 0 0 -495 0 -495 -150 0 -150 0 0 66 0 67 -50 -47 c-80
-75 -125 -91 -255 -91 -104 0 -114 2 -176 32 -196 97 -298 350 -245 604 26
123 112 254 203 310 95 59 232 74 348 38z m1269 5 c88 -23 170 -70 223 -128
44 -49 94 -142 107 -198 l6 -28 -159 0 -159 0 -21 35 c-29 49 -75 75 -136 75
-69 0 -112 -25 -147 -87 -70 -125 -36 -337 63 -388 42 -22 121 -21 161 2 18
10 44 36 57 56 l24 37 160 0 159 0 -6 -27 c-17 -69 -68 -157 -123 -211 -93
-93 -197 -132 -349 -132 -251 0 -434 148 -480 387 -18 94 -18 150 1 238 40
189 171 328 348 371 73 18 198 17 271 -2z m1058 5 c86 -18 171 -64 233 -126
95 -95 135 -201 135 -355 l0 -88 -344 0 -344 0 10 -42 c21 -93 107 -156 196
-143 61 9 95 28 122 65 l21 30 160 0 160 0 -6 -22 c-18 -58 -65 -135 -113
-183 -92 -91 -206 -135 -352 -135 -152 0 -262 42 -356 137 -189 189 -189 546
0 735 91 91 206 136 348 137 42 1 101 -4 130 -10z"/>
<path d="M1308 1550 c-52 -16 -98 -52 -126 -98 -24 -42 -27 -57 -27 -137 0
-81 3 -95 28 -138 36 -60 93 -97 163 -104 44 -5 62 -1 107 20 61 31 89 64 113
136 60 186 -89 372 -258 321z"/>
<path d="M3537 1566 c-48 -18 -74 -41 -98 -88 -36 -70 -40 -68 166 -68 181 0
185 0 185 21 0 37 -32 90 -70 116 -47 30 -129 39 -183 19z"/>
</g>
</svg>
